<?xml version="1.0" encoding="iso-8859-1"?>
<!-- Generator: Adobe Illustrator 17.1.0, SVG Export Plug-In . SVG Version: 6.00 Build 0)  -->
<!DOCTYPE svg PUBLIC "-//W3C//DTD SVG 1.1//EN" "http://www.w3.org/Graphics/SVG/1.1/DTD/svg11.dtd">
<svg version="1.1" id="Capa_1" xmlns="http://www.w3.org/2000/svg" xmlns:xlink="http://www.w3.org/1999/xlink" x="0px" y="0px"
	 viewBox="0 0 195.071 195.071" style="enable-background:new 0 0 195.071 195.071;" xml:space="preserve">
<path d="M172.941,195.071c-5.912,0-11.824-2.25-16.325-6.751l-12.684-12.685l-1.735,1.735c-0.772,0.773-2.026,0.782-2.809,0.019
	c-0.171-0.148-0.267-0.233-0.357-0.325c-5.459-5.458-8.465-12.715-8.465-20.435c0-7.049,2.507-13.712,7.099-18.973l-40.13-40.129
	l-40.129,40.129c4.592,5.26,7.099,11.924,7.099,18.973c0,7.719-3.006,14.977-8.465,20.435c-0.091,0.091-0.187,0.176-0.283,0.26
	c-0.783,0.762-2.108,0.821-2.883,0.046l-1.735-1.735L38.455,188.32c-9.002,9.002-23.648,9.002-32.65,0l0.088-0.088
	c-0.368-0.248-0.715-0.534-1.035-0.854c-1.304-1.303-2.021-3.037-2.021-4.88s0.718-3.577,2.021-4.88l24.132-24.132l-14.124-14.124
	c-0.772-0.772-0.782-2.021-0.022-2.806l0.067-0.077c0.084-0.097,0.169-0.192,0.261-0.284c10.793-10.792,28.068-11.248,39.406-1.366
	l40.13-40.13L3.422,3.414c-0.781-0.781-0.781-2.047,0-2.828c0.781-0.781,2.047-0.781,2.828,0l91.286,91.285l91.285-91.285
	c0.781-0.781,2.047-0.781,2.828,0c0.781,0.781,0.781,2.047,0,2.828L100.364,94.7l40.129,40.129
	c5.261-4.591,11.924-7.098,18.973-7.098c7.719,0,14.977,3.006,20.435,8.464c0.092,0.091,0.177,0.187,0.261,0.284l0.067,0.077
	c0.756,0.785,0.748,2.035-0.022,2.806l-14.124,14.125l24.132,24.132c1.304,1.303,2.021,3.037,2.021,4.88s-0.718,3.577-2.021,4.88
	c-0.21,0.21-0.432,0.405-0.662,0.584c-0.079,0.127-0.175,0.248-0.285,0.358C184.766,192.821,178.854,195.071,172.941,195.071z
	 M146.761,172.807l12.684,12.685c6.163,6.162,15.526,7.222,22.792,3.177c-0.651-0.327-1.252-0.761-1.782-1.291l-24.132-24.132
	L146.761,172.807z M12.836,188.668c7.265,4.045,16.627,2.984,22.791-3.177l12.684-12.685l-9.561-9.561l-24.132,24.131v0
	C14.088,187.908,13.486,188.341,12.836,188.668z M159.15,160.417l24.132,24.132c1.096,1.097,3.008,1.097,4.104,0l0,0
	c1.131-1.131,1.131-2.972,0-4.104l-24.132-24.131L159.15,160.417z M31.817,156.314L7.686,180.446c-1.131,1.131-1.131,2.972,0,4.104
	c1.097,1.098,3.008,1.095,4.104,0l24.131-24.131L31.817,156.314z M141.859,139.023c-4.703,4.703-7.293,10.956-7.293,17.606
	c0,6.133,2.203,11.928,6.233,16.481l35.146-35.146c-4.551-4.031-10.347-6.233-16.48-6.233
	C152.815,131.731,146.563,134.321,141.859,139.023z M40.19,159.03l14.074,14.074c4.055-4.594,6.24-10.366,6.24-16.474
	c0-6.651-2.59-12.904-7.293-17.606s-10.956-7.292-17.606-7.292c-6.133,0-11.928,2.202-16.48,6.233l21.039,21.039
	C40.173,159.012,40.182,159.021,40.19,159.03z"/>
<g>
</g>
<g>
</g>
<g>
</g>
<g>
</g>
<g>
</g>
<g>
</g>
<g>
</g>
<g>
</g>
<g>
</g>
<g>
</g>
<g>
</g>
<g>
</g>
<g>
</g>
<g>
</g>
<g>
</g>
</svg>
